<svg id="visual" viewBox="0 0 960 100" width="960" height="100" xmlns="http://www.w3.org/2000/svg" xmlns:xlink="http://www.w3.org/1999/xlink" version="1.1"><path d="M0 15L8 17.5C16 20 32 25 48 27.7C64 30.3 80 30.7 96 28.7C112 26.7 128 22.3 144 20C160 17.7 176 17.3 192 19.2C208 21 224 25 240 26C256 27 272 25 288 25C304 25 320 27 336 30.2C352 33.3 368 37.7 384 36C400 34.3 416 26.7 432 26.7C448 26.7 464 34.3 480 37.2C496 40 512 38 528 34.8C544 31.7 560 27.3 576 25C592 22.7 608 22.3 624 22C640 21.7 656 21.3 672 23.2C688 25 704 29 720 30.2C736 31.3 752 29.7 768 27.5C784 25.3 800 22.7 816 22.2C832 21.7 848 23.3 864 25.3C880 27.3 896 29.7 912 29.5C928 29.3 944 26.7 952 25.3L960 24L960 0L952 0C944 0 928 0 912 0C896 0 880 0 864 0C848 0 832 0 816 0C800 0 784 0 768 0C752 0 736 0 720 0C704 0 688 0 672 0C656 0 640 0 624 0C608 0 592 0 576 0C560 0 544 0 528 0C512 0 496 0 480 0C464 0 448 0 432 0C416 0 400 0 384 0C368 0 352 0 336 0C320 0 304 0 288 0C272 0 256 0 240 0C224 0 208 0 192 0C176 0 160 0 144 0C128 0 112 0 96 0C80 0 64 0 48 0C32 0 16 0 8 0L0 0Z" fill="#080414"></path><path d="M0 38L8 42C16 46 32 54 48 59C64 64 80 66 96 69.3C112 72.7 128 77.3 144 79.3C160 81.3 176 80.7 192 81.7C208 82.7 224 85.3 240 86.5C256 87.7 272 87.3 288 86C304 84.7 320 82.3 336 82.7C352 83 368 86 384 85.2C400 84.3 416 79.7 432 79.7C448 79.7 464 84.3 480 84.8C496 85.3 512 81.7 528 74.3C544 67 560 56 576 54.5C592 53 608 61 624 67.2C640 73.3 656 77.7 672 76.5C688 75.3 704 68.7 720 63.5C736 58.3 752 54.7 768 58C784 61.3 800 71.7 816 77.8C832 84 848 86 864 81.3C880 76.7 896 65.3 912 64.8C928 64.3 944 74.7 952 79.8L960 85L960 22L952 23.3C944 24.7 928 27.3 912 27.5C896 27.7 880 25.3 864 23.3C848 21.3 832 19.7 816 20.2C800 20.7 784 23.3 768 25.5C752 27.7 736 29.3 720 28.2C704 27 688 23 672 21.2C656 19.3 640 19.7 624 20C608 20.3 592 20.7 576 23C560 25.3 544 29.7 528 32.8C512 36 496 38 480 35.2C464 32.3 448 24.7 432 24.7C416 24.7 400 32.3 384 34C368 35.7 352 31.3 336 28.2C320 25 304 23 288 23C272 23 256 25 240 24C224 23 208 19 192 17.2C176 15.3 160 15.7 144 18C128 20.3 112 24.7 96 26.7C80 28.7 64 28.3 48 25.7C32 23 16 18 8 15.5L0 13Z" fill="#0b0519"></path><path d="M0 101L8 101C16 101 32 101 48 101C64 101 80 101 96 101C112 101 128 101 144 101C160 101 176 101 192 101C208 101 224 101 240 101C256 101 272 101 288 101C304 101 320 101 336 101C352 101 368 101 384 101C400 101 416 101 432 101C448 101 464 101 480 101C496 101 512 101 528 101C544 101 560 101 576 101C592 101 608 101 624 101C640 101 656 101 672 101C688 101 704 101 720 101C736 101 752 101 768 101C784 101 800 101 816 101C832 101 848 101 864 101C880 101 896 101 912 101C928 101 944 101 952 101L960 101L960 83L952 77.8C944 72.7 928 62.3 912 62.8C896 63.3 880 74.7 864 79.3C848 84 832 82 816 75.8C800 69.7 784 59.3 768 56C752 52.7 736 56.3 720 61.5C704 66.7 688 73.3 672 74.5C656 75.7 640 71.3 624 65.2C608 59 592 51 576 52.5C560 54 544 65 528 72.3C512 79.7 496 83.3 480 82.8C464 82.3 448 77.7 432 77.7C416 77.7 400 82.3 384 83.2C368 84 352 81 336 80.7C320 80.3 304 82.7 288 84C272 85.3 256 85.7 240 84.5C224 83.3 208 80.7 192 79.7C176 78.7 160 79.3 144 77.3C128 75.3 112 70.7 96 67.3C80 64 64 62 48 57C32 52 16 44 8 40L0 36Z" fill="#0d061e"></path></svg>