<svg id="visual" viewBox="0 0 960 100" width="960" height="100" xmlns="http://www.w3.org/2000/svg" xmlns:xlink="http://www.w3.org/1999/xlink" version="1.1"><path d="M0 61L8 58.5C16 56 32 51 48 49.3C64 47.7 80 49.3 96 52C112 54.7 128 58.3 144 54.8C160 51.3 176 40.7 192 34.3C208 28 224 26 240 25.8C256 25.7 272 27.3 288 33.8C304 40.3 320 51.7 336 56.5C352 61.3 368 59.7 384 54.2C400 48.7 416 39.3 432 35.3C448 31.3 464 32.7 480 33.5C496 34.3 512 34.7 528 33.7C544 32.7 560 30.3 576 27.8C592 25.3 608 22.7 624 20.7C640 18.7 656 17.3 672 25.5C688 33.7 704 51.3 720 53.8C736 56.3 752 43.7 768 36.8C784 30 800 29 816 30C832 31 848 34 864 38C880 42 896 47 912 51.3C928 55.7 944 59.3 952 61.2L960 63L960 0L952 0C944 0 928 0 912 0C896 0 880 0 864 0C848 0 832 0 816 0C800 0 784 0 768 0C752 0 736 0 720 0C704 0 688 0 672 0C656 0 640 0 624 0C608 0 592 0 576 0C560 0 544 0 528 0C512 0 496 0 480 0C464 0 448 0 432 0C416 0 400 0 384 0C368 0 352 0 336 0C320 0 304 0 288 0C272 0 256 0 240 0C224 0 208 0 192 0C176 0 160 0 144 0C128 0 112 0 96 0C80 0 64 0 48 0C32 0 16 0 8 0L0 0Z" fill="#0d061e"></path><path d="M0 82L8 84C16 86 32 90 48 86.7C64 83.3 80 72.7 96 72C112 71.3 128 80.7 144 82.7C160 84.7 176 79.3 192 75.2C208 71 224 68 240 67.2C256 66.3 272 67.7 288 70.5C304 73.3 320 77.7 336 81.5C352 85.3 368 88.7 384 87.7C400 86.7 416 81.3 432 79C448 76.7 464 77.3 480 75.3C496 73.3 512 68.7 528 66.8C544 65 560 66 576 65.7C592 65.3 608 63.7 624 65C640 66.3 656 70.7 672 75.2C688 79.7 704 84.3 720 86.7C736 89 752 89 768 89.7C784 90.3 800 91.7 816 88.5C832 85.3 848 77.7 864 72.2C880 66.7 896 63.3 912 65C928 66.7 944 73.3 952 76.7L960 80L960 61L952 59.2C944 57.3 928 53.7 912 49.3C896 45 880 40 864 36C848 32 832 29 816 28C800 27 784 28 768 34.8C752 41.7 736 54.3 720 51.8C704 49.3 688 31.7 672 23.5C656 15.3 640 16.7 624 18.7C608 20.7 592 23.3 576 25.8C560 28.3 544 30.7 528 31.7C512 32.7 496 32.3 480 31.5C464 30.7 448 29.3 432 33.3C416 37.3 400 46.7 384 52.2C368 57.7 352 59.3 336 54.5C320 49.7 304 38.3 288 31.8C272 25.3 256 23.7 240 23.8C224 24 208 26 192 32.3C176 38.7 160 49.3 144 52.8C128 56.3 112 52.7 96 50C80 47.3 64 45.7 48 47.3C32 49 16 54 8 56.5L0 59Z" fill="#0b0519"></path><path d="M0 101L8 101C16 101 32 101 48 101C64 101 80 101 96 101C112 101 128 101 144 101C160 101 176 101 192 101C208 101 224 101 240 101C256 101 272 101 288 101C304 101 320 101 336 101C352 101 368 101 384 101C400 101 416 101 432 101C448 101 464 101 480 101C496 101 512 101 528 101C544 101 560 101 576 101C592 101 608 101 624 101C640 101 656 101 672 101C688 101 704 101 720 101C736 101 752 101 768 101C784 101 800 101 816 101C832 101 848 101 864 101C880 101 896 101 912 101C928 101 944 101 952 101L960 101L960 78L952 74.7C944 71.3 928 64.7 912 63C896 61.3 880 64.7 864 70.2C848 75.7 832 83.3 816 86.5C800 89.7 784 88.3 768 87.7C752 87 736 87 720 84.7C704 82.3 688 77.7 672 73.2C656 68.7 640 64.3 624 63C608 61.7 592 63.3 576 63.7C560 64 544 63 528 64.8C512 66.7 496 71.3 480 73.3C464 75.3 448 74.7 432 77C416 79.3 400 84.7 384 85.7C368 86.7 352 83.3 336 79.5C320 75.7 304 71.3 288 68.5C272 65.7 256 64.3 240 65.2C224 66 208 69 192 73.2C176 77.3 160 82.7 144 80.7C128 78.7 112 69.3 96 70C80 70.7 64 81.3 48 84.7C32 88 16 84 8 82L0 80Z" fill="#080414"></path></svg>