<svg id="visual" viewBox="0 0 960 100" width="960" height="100" xmlns="http://www.w3.org/2000/svg" xmlns:xlink="http://www.w3.org/1999/xlink" version="1.1"><path d="M0 31L8 31.8C16 32.7 32 34.3 48 30.8C64 27.3 80 18.7 96 18C112 17.3 128 24.7 144 24.3C160 24 176 16 192 16.8C208 17.7 224 27.3 240 28.3C256 29.3 272 21.7 288 18.8C304 16 320 18 336 19.7C352 21.3 368 22.7 384 25.2C400 27.7 416 31.3 432 31.2C448 31 464 27 480 23.8C496 20.7 512 18.3 528 19.7C544 21 560 26 576 29C592 32 608 33 624 31.3C640 29.7 656 25.3 672 24.2C688 23 704 25 720 24.7C736 24.3 752 21.7 768 22.7C784 23.7 800 28.3 816 30.2C832 32 848 31 864 31.2C880 31.3 896 32.7 912 29.3C928 26 944 18 952 14L960 10L960 0L952 0C944 0 928 0 912 0C896 0 880 0 864 0C848 0 832 0 816 0C800 0 784 0 768 0C752 0 736 0 720 0C704 0 688 0 672 0C656 0 640 0 624 0C608 0 592 0 576 0C560 0 544 0 528 0C512 0 496 0 480 0C464 0 448 0 432 0C416 0 400 0 384 0C368 0 352 0 336 0C320 0 304 0 288 0C272 0 256 0 240 0C224 0 208 0 192 0C176 0 160 0 144 0C128 0 112 0 96 0C80 0 64 0 48 0C32 0 16 0 8 0L0 0Z" fill="#0d061e"></path><path d="M0 48L8 55C16 62 32 76 48 79.3C64 82.7 80 75.3 96 74.2C112 73 128 78 144 76.2C160 74.3 176 65.7 192 62.8C208 60 224 63 240 66.8C256 70.7 272 75.3 288 73.8C304 72.3 320 64.7 336 63.3C352 62 368 67 384 65C400 63 416 54 432 50.5C448 47 464 49 480 49.5C496 50 512 49 528 54.7C544 60.3 560 72.7 576 77.2C592 81.7 608 78.3 624 77.2C640 76 656 77 672 75.2C688 73.3 704 68.7 720 67.3C736 66 752 68 768 69.7C784 71.3 800 72.7 816 74.3C832 76 848 78 864 77C880 76 896 72 912 69.8C928 67.7 944 67.3 952 67.2L960 67L960 8L952 12C944 16 928 24 912 27.3C896 30.7 880 29.3 864 29.2C848 29 832 30 816 28.2C800 26.3 784 21.7 768 20.7C752 19.7 736 22.3 720 22.7C704 23 688 21 672 22.2C656 23.3 640 27.7 624 29.3C608 31 592 30 576 27C560 24 544 19 528 17.7C512 16.3 496 18.7 480 21.8C464 25 448 29 432 29.2C416 29.3 400 25.7 384 23.2C368 20.7 352 19.3 336 17.7C320 16 304 14 288 16.8C272 19.7 256 27.3 240 26.3C224 25.3 208 15.7 192 14.8C176 14 160 22 144 22.3C128 22.7 112 15.3 96 16C80 16.7 64 25.3 48 28.8C32 32.3 16 30.7 8 29.8L0 29Z" fill="#0b0519"></path><path d="M0 101L8 101C16 101 32 101 48 101C64 101 80 101 96 101C112 101 128 101 144 101C160 101 176 101 192 101C208 101 224 101 240 101C256 101 272 101 288 101C304 101 320 101 336 101C352 101 368 101 384 101C400 101 416 101 432 101C448 101 464 101 480 101C496 101 512 101 528 101C544 101 560 101 576 101C592 101 608 101 624 101C640 101 656 101 672 101C688 101 704 101 720 101C736 101 752 101 768 101C784 101 800 101 816 101C832 101 848 101 864 101C880 101 896 101 912 101C928 101 944 101 952 101L960 101L960 65L952 65.2C944 65.3 928 65.7 912 67.8C896 70 880 74 864 75C848 76 832 74 816 72.3C800 70.7 784 69.3 768 67.7C752 66 736 64 720 65.3C704 66.7 688 71.3 672 73.2C656 75 640 74 624 75.2C608 76.3 592 79.7 576 75.2C560 70.7 544 58.3 528 52.7C512 47 496 48 480 47.5C464 47 448 45 432 48.5C416 52 400 61 384 63C368 65 352 60 336 61.3C320 62.7 304 70.3 288 71.8C272 73.3 256 68.7 240 64.8C224 61 208 58 192 60.8C176 63.7 160 72.3 144 74.2C128 76 112 71 96 72.2C80 73.3 64 80.7 48 77.3C32 74 16 60 8 53L0 46Z" fill="#080414"></path></svg>